#VRML V2.0 utf8
# Shou Han AM90 right-angle USB-A male plug, LCSC C404965.
#         Housing 12.52 x 5.85 and shell 12.00 x 4.50 from the drawing; overall
#         19.85 long. Contacts, latching dimples and shell seams omitted.

Transform {
  translation 0.000000 -0.472441 1.151575
  children [
    Shape {
      appearance Appearance { material Material {
        diffuseColor 0.14 0.14 0.15
        specularColor 0.05 0.05 0.05
        shininess 0.15
      } }
      geometry Box { size 4.929134 2.755906 2.303150 }
    }
  ]
}

Transform {
  translation 0.000000 -4.379921 1.151575
  children [
    Shape {
      appearance Appearance { material Material {
        diffuseColor 0.78 0.79 0.8
        specularColor 0.6 0.6 0.62
        shininess 0.65
      } }
      geometry Box { size 4.724409 5.059055 1.771654 }
    }
  ]
}

Transform {
  translation 0.000000 -6.515748 0.826772
  children [
    Shape {
      appearance Appearance { material Material {
        diffuseColor 0.08 0.08 0.09
        specularColor 0.02 0.02 0.02
        shininess 0.05
      } }
      geometry Box { size 3.937008 0.787402 0.708661 }
    }
  ]
}
